<svg width="326" height="286" viewBox="0 0 326 286" fill="none" xmlns="http://www.w3.org/2000/svg">
<path d="M163.673 13L91.2328 24.8231L18.7928 36.3165V34.8092L163.673 77.2028H163.023L307.903 41.9219V43.4763L235.963 28.4972L163.673 13ZM163.673 13L236.213 27.1312L308.553 41.8748L312 42.5813L308.553 43.4292L163.673 79.3696H163.323H163.023L18.1433 36.2694L14.896 35.3273L18.2432 34.8092L91.1328 23.7868L163.673 13Z" fill="white"/>
<path d="M308.555 42.6284L163.275 79.558L163.875 78.8043L164.424 173.766L164.874 268.775L163.076 267.833L279.379 202.5L278.98 203.065L308.555 42.6284ZM308.555 42.6284L280.678 203.347V203.724H280.329L164.325 269.67L162.526 270.706V268.728V173.719V78.1449H163.126L308.555 42.6284Z" fill="white"/>
<path d="M65.4625 207.377L64.0235 206.595L63.2105 173.796L64.6495 174.577L65.4625 207.377ZM62.2103 163.145C62.1988 162.68 62.3312 162.363 62.6074 162.194C62.8831 162.005 63.2253 162.021 63.6339 162.243C64.0425 162.465 64.3932 162.824 64.686 163.322C64.996 163.81 65.1568 164.286 65.1683 164.751C65.1798 165.215 65.0386 165.527 64.7446 165.687C64.4683 165.856 64.1259 165.829 63.7173 165.608C63.3087 165.386 62.9583 165.036 62.666 164.558C62.3737 164.081 62.2218 163.609 62.2103 163.145ZM75.7381 188.134C76.6165 186.099 77.9524 184.84 79.7457 184.359C81.539 183.877 83.546 184.239 85.7667 185.445C88.8579 187.123 91.1744 189.368 92.7164 192.179C94.2755 194.979 95.1138 198.395 95.2313 202.426L95.7618 223.828L94.3228 223.046L93.7908 201.584C93.6858 198.058 92.9908 195.119 91.7056 192.766C90.4199 190.394 88.4269 188.474 85.7265 187.008C83.2394 185.657 81.1059 185.496 79.3261 186.523C77.5636 187.54 76.4019 189.461 75.841 192.287L76.3617 213.294L74.9227 212.513L74.1097 179.714L75.5487 180.495L75.7381 188.134ZM107.007 229.934L106.236 198.801L101.226 196.081L101.184 194.414L106.194 197.134L106.076 192.345C106.018 189.323 106.626 187.33 107.899 186.367C109.19 185.392 111.016 185.547 113.379 186.83C114.694 187.544 115.835 188.333 116.803 189.197L116.629 190.658C115.697 189.853 114.636 189.127 113.446 188.481C111.545 187.449 110.062 187.341 108.995 188.158C107.946 188.964 107.454 190.66 107.518 193.247L107.633 197.915L115.255 202.054L115.296 203.721L107.675 199.583L108.446 230.715L107.007 229.934ZM119.43 219.871C119.352 216.739 119.806 214.214 120.793 212.298C121.797 210.371 123.241 209.231 125.125 208.878C127.027 208.535 129.195 209.024 131.629 210.346C134.045 211.657 136.229 213.511 138.181 215.907C140.133 218.303 141.673 221.033 142.801 224.097C143.946 227.172 144.566 230.27 144.661 233.391L144.697 234.847C144.775 237.999 144.321 240.534 143.335 242.45C142.348 244.367 140.904 245.497 139.002 245.84C137.118 246.193 134.959 245.708 132.525 244.387C130.091 243.065 127.889 241.192 125.918 238.766C123.966 236.35 122.426 233.62 121.299 230.576C120.171 227.511 119.56 224.428 119.466 221.326L119.43 219.871ZM120.9 221.926C120.968 224.654 121.501 227.416 122.499 230.21C123.514 232.995 124.882 235.482 126.601 237.671C128.338 239.87 130.299 241.563 132.484 242.75C135.771 244.534 138.41 244.581 140.401 242.891C142.41 241.211 143.36 238.158 143.25 233.732L143.227 232.792C143.16 230.104 142.619 227.358 141.603 224.554C140.587 221.749 139.21 219.247 137.473 217.048C135.754 214.838 133.819 213.15 131.669 211.983C128.383 210.198 125.735 210.166 123.727 211.887C121.719 213.608 120.769 216.631 120.876 220.956L120.9 221.926Z" fill="white"/>
<path d="M43.4756 204.431C40.9777 190.865 38.4798 177.157 36.1317 163.403L28.7878 122.046C24.0584 94.3171 19.4622 66.4158 14.9992 38.3418L14 32.2183L20.3948 34.0553L92.3352 54.5927L164.226 75.6011L167.723 76.6374V80.0759C167.723 111.306 167.723 142.536 167.723 173.766C167.723 204.996 167.223 236.273 166.724 267.503V272.732L161.977 270.141C141.994 259.213 122.011 248.332 102.427 237.168L43.4756 204.431ZM43.4756 204.431L104.675 234.624C124.925 244.61 144.992 254.659 164.875 264.771L159.879 267.409C159.23 236.179 158.63 204.949 158.33 173.719C158.031 142.489 157.781 111.259 157.581 79.9818L161.078 84.4566L89.3376 63.2127L17.7469 41.592L23.1424 37.2584C26.7395 64.7986 30.2366 92.4486 33.6338 120.209L38.6296 162.131L43.4756 204.431Z" fill="white"/>
</svg>
