<svg width="326" height="286" viewBox="0 0 326 286" fill="none" xmlns="http://www.w3.org/2000/svg">
<path d="M163.673 13L91.2328 24.8231L18.7928 36.3165V34.8092L163.673 77.2028H163.023L307.903 41.9219V43.4763L235.963 28.4972L163.673 13ZM163.673 13L236.213 27.1312L308.553 41.8748L312 42.5813L308.553 43.4292L163.673 79.3696H163.323H163.023L18.1433 36.2694L14.896 35.3273L18.2432 34.8092L91.1328 23.7868L163.673 13Z" fill="white"/>
<path d="M308.555 42.6284L163.276 79.558L163.875 78.8043L164.425 173.766L164.874 268.775L163.076 267.833L279.38 202.5L278.98 203.065L308.555 42.6284ZM308.555 42.6284L280.678 203.347V203.724H280.329L164.325 269.67L162.526 270.706V268.728V173.719V78.1449H163.126L308.555 42.6284Z" fill="white"/>
<path d="M43.4756 204.431C40.9777 190.865 38.4798 177.157 36.1317 163.403L28.7878 122.046C24.0584 94.3171 19.4622 66.4158 14.9992 38.3418L14 32.2183L20.3948 34.0553L92.3352 54.5927L164.226 75.6011L167.723 76.6374V80.0759C167.723 111.306 167.723 142.536 167.723 173.766C167.723 204.996 167.223 236.273 166.724 267.503V272.732L161.977 270.141C141.994 259.213 122.011 248.332 102.427 237.168L43.4756 204.431ZM43.4756 204.431L104.675 234.624C124.925 244.61 144.992 254.659 164.875 264.771L159.879 267.409C159.23 236.179 158.63 204.949 158.33 173.719C158.031 142.489 157.781 111.259 157.581 79.9818L161.078 84.4566L89.3376 63.2127L17.7469 41.592L23.1424 37.2584C26.7395 64.7986 30.2366 92.4486 33.6338 120.209L38.6296 162.131L43.4756 204.431Z" fill="white"/>
</svg>
